<svg xmlns="http://www.w3.org/2000/svg" viewBox="0 0 24 24" width="24" height="24" aria-hidden="true">
  <path fill="#fff" d="M3 7h6.5c2.3 0 3.5 1.1 3.5 2.8 0 1.1-.6 2-1.7 2.4 1.4.4 2.2 1.4 2.2 2.7 0 1.9-1.4 3.1-3.8 3.1H3V7zm6 4c.9 0 1.4-.5 1.4-1.2S9.9 8.6 9 8.6H5.6V11H9zm.3 5c1 0 1.6-.5 1.6-1.3s-.6-1.3-1.6-1.3H5.6V16H9.3zM14.5 13.5c0-2.4 1.8-4.3 4.3-4.3 2.6 0 4.2 1.9 4.2 4.6v.6h-6.5c.2 1 1.1 1.7 2.5 1.7 1 0 1.9-.3 2.7-1l1.2 1.8c-1.1 1-2.5 1.5-4 1.5-2.8 0-4.4-1.8-4.4-3.9zm6.4-1.1c-.1-.9-.8-1.6-2-1.6-1.1 0-1.8.6-2 1.6h4zM14.2 7H21v1.6h-6.8V7z"/>
</svg>



