<svg xmlns="http://www.w3.org/2000/svg" viewBox="0 0 24 24" width="24" height="24" aria-hidden="true">
  <path fill="#fff" d="M12 2a10 10 0 1 0 .001 20.001A10 10 0 0 0 12 2zm6.8 6.9a7.9 7.9 0 0 1-5.2 1.1 26 26 0 0 0-1.8-3.5 8 8 0 0 1 7 2.4zM9.7 4.7a24.7 24.7 0 0 1 2.1 3.8 7.8 7.8 0 0 1-6.4-1.2 8 8 0 0 1 4.3-2.6zM4 12a7.9 7.9 0 0 1 .2-1.7c2.6 1.3 5.3 1.6 7.6 1.5.2.4.4.8.6 1.3-3.1.9-5.4 2.8-6.8 5A8 8 0 0 1 4 12zm8 8a8 8 0 0 1-5.1-1.8c1.2-2 3.2-3.6 6.1-4.3.7 2 1.1 4 .9 6.1.1 0-.7 0-1.9 0zm3.3-.9c.1-1.8-.2-3.6-.8-5.3 1.5-.1 3.1.2 4.9 1.1A8 8 0 0 1 15.3 19.1z"/>
</svg>



