<svg xmlns="http://www.w3.org/2000/svg" viewBox="0 0 24 24" width="24" height="24" aria-hidden="true">
  <path fill="#fff" d="M12.04 2C7.18 2 4 5.04 4 9.25c0 2.86 1.62 4.48 2.66 4.48.41 0 .65-1.16.65-1.48 0-.39-1-1.22-1-2.86 0-3.37 2.55-5.74 6.18-5.74 3 0 5.19 1.72 5.19 4.87 0 2.36-1.06 6.86-4.5 6.86-1.24 0-2.3-.9-2.3-2.2 0-1.92 1.34-3.78 1.34-5.7 0-3.3-4.8-2.7-4.8 1.28 0 1.34.45 2.24.45 2.24s-1.54 6.52-1.82 7.65c-.54 2.27-.08 5.04-.04 5.31.02.13.19.17.28.06.11-.14 1.56-2.12 2.05-4.09.14-.58.8-2.96.8-2.96.39.75 1.52 1.41 2.72 1.41 3.58 0 6.3-3.34 6.3-7.47C19.66 5.23 16.5 2 12.04 2z"/>
</svg>



