<svg xmlns="http://www.w3.org/2000/svg" viewBox="0 0 24 24" width="24" height="24" aria-hidden="true">
  <path fill="#fff" d="M19 13.5c0 .5-.1 1-.3 1.5.8.4 1.3 1 1.3 1.7 0 1.9-3.1 3.4-6.9 3.4S6.2 18.6 6.2 16.7c0-.7.5-1.3 1.3-1.7-.2-.5-.3-1-.3-1.5 0-2.4 2.7-4.4 6-4.4s6 2 6 4.4zM9.6 14.2a1.3 1.3 0 1 0 0-2.6 1.3 1.3 0 0 0 0 2.6zm6.8 0a1.3 1.3 0 1 0 0-2.6 1.3 1.3 0 0 0 0 2.6zM12 18.2c1.4 0 2.6-.4 3.4-1-.4-.5-1.5-.9-3.4-.9s-3 .4-3.4.9c.8.6 2 1 3.4 1zM17 2l-2.2.5-.7 3.2a6.7 6.7 0 0 0-1.9-.3c-3.3 0-6 2-6 4.4 0 1 .4 2 1 2.7.2-2.7 3-4.9 6.4-4.9 1 0 2 .2 2.8.6l.8-3 2.3.6.5-2.1L17 2z"/>
</svg>



